<svg width="66" height="47" viewBox="0 0 66 47" fill="none" xmlns="http://www.w3.org/2000/svg">
<path fill-rule="evenodd" clip-rule="evenodd" d="M4.64563 1.24107C3.69198 1.69218 2.44051 2.65776 1.86458 3.38676C0.84671 4.67484 0.817383 5.23767 0.817383 23.42C0.817383 41.6023 0.846711 42.1651 1.86458 43.4532C4.25477 46.4781 3.64597 46.4199 32.9259 46.4199C62.2059 46.4199 61.5971 46.4781 63.9873 43.4532C65.0051 42.1651 65.0345 41.6023 65.0345 23.42C65.0345 5.23767 65.0051 4.67484 63.9873 3.38676C61.5971 0.361855 62.2059 0.420063 32.9259 0.420063C8.65086 0.420063 6.23134 0.490475 4.64563 1.24107ZM60.4478 4.91142C61.142 5.5564 61.2421 7.8908 61.2421 23.42C61.2421 38.9492 61.142 41.2836 60.4478 41.9285C59.7454 42.5806 56.5492 42.666 32.9259 42.666C9.30263 42.666 6.10644 42.5806 5.4041 41.9285C4.70985 41.2836 4.60973 38.9492 4.60973 23.42C4.60973 7.8908 4.70985 5.5564 5.4041 4.91142C6.10644 4.25941 9.30263 4.17397 32.9259 4.17397C56.5492 4.17397 59.7454 4.25941 60.4478 4.91142ZM16.3407 11.7785C15.9974 12.0972 15.7339 13.6247 15.7339 15.2991L15.7339 18.2564L12.5484 18.2564C10.7447 18.2564 9.09936 18.501 8.75603 18.8197C7.93638 19.5806 7.93638 27.2593 8.75603 28.0203C9.09936 28.339 10.7447 28.5835 12.5484 28.5835L15.7339 28.5835L15.7339 31.5409C15.7339 33.2153 15.9974 34.7427 16.3407 35.0615C17.1639 35.8257 25.9338 35.8257 26.757 35.0615C27.1004 34.7427 27.3638 33.2153 27.3638 31.5409L27.3638 28.5835L30.5494 28.5835C32.353 28.5835 33.9984 28.339 34.3417 28.0203C35.1614 27.2593 35.1614 19.5806 34.3417 18.8197C33.9984 18.501 32.353 18.2564 30.5494 18.2564L27.3638 18.2564L27.3638 15.2991C27.3638 13.6247 27.1004 12.0972 26.757 11.7785C25.9338 11.0143 17.1639 11.0143 16.3407 11.7785ZM38.9583 11.9587C38.4764 12.4981 38.4395 12.9168 38.8253 13.4843C39.288 14.165 40.4899 14.2664 48.0953 14.2664C55.7007 14.2664 56.9027 14.165 57.3653 13.4843C57.7511 12.9168 57.7142 12.4981 57.2323 11.9587C56.2428 10.8519 39.9478 10.8519 38.9583 11.9587ZM23.3186 17.4584C23.3186 19.1328 23.5821 20.6603 23.9254 20.979C24.2688 21.2978 25.9141 21.5423 27.7178 21.5423L30.9033 21.5423L30.9033 23.42L30.9033 25.2976L27.7178 25.2976C25.9141 25.2976 24.2688 25.5422 23.9254 25.8609C23.5821 26.1797 23.3186 27.7071 23.3186 29.3815L23.3186 32.3389L21.5489 32.3389L19.7791 32.3389L19.7791 29.7261C19.7791 25.7403 19.3478 25.2976 15.4634 25.2976L12.1944 25.2976L12.1944 23.42L12.1944 21.5423L15.4634 21.5423C19.3478 21.5423 19.7791 21.0997 19.7791 17.1139L19.7791 14.5011L21.5489 14.5011L23.3186 14.5011L23.3186 17.4584ZM38.9583 19C38.4764 19.5393 38.4395 19.958 38.8253 20.5256C39.288 21.2062 40.4899 21.3076 48.0953 21.3076C55.7007 21.3076 56.9027 21.2062 57.3653 20.5256C57.7511 19.958 57.7142 19.5393 57.2323 19C56.2428 17.8931 39.9478 17.8931 38.9583 19ZM38.9583 26.0412C38.4764 26.5806 38.4395 26.9993 38.8253 27.5668C39.288 28.2474 40.4899 28.3488 48.0953 28.3488C55.7007 28.3488 56.9027 28.2474 57.3653 27.5668C57.7511 26.9993 57.7142 26.5806 57.2323 26.0412C56.2428 24.9343 39.9478 24.9343 38.9583 26.0412ZM38.9699 33.0697C38.4779 33.6199 38.4385 34.0391 38.8253 34.608C39.2799 35.2765 40.3756 35.3901 46.3807 35.3901L53.4046 35.3901L53.4046 33.9818L53.4046 32.5736L46.5253 32.4435C40.7018 32.3332 39.5423 32.4295 38.9699 33.0697Z" fill="#FAFCFF"/>
</svg>
