<svg width="48" height="48" viewBox="0 0 48 48" fill="none" xmlns="http://www.w3.org/2000/svg">
<path fill-rule="evenodd" clip-rule="evenodd" d="M23.0151 0.0772464C22.4516 0.202187 21.8493 0.433307 21.3979 0.697914C21.1757 0.828107 19.4861 2.188 17.6432 3.71984L14.2923 6.5051L9.83713 6.552L5.38196 6.5989L4.85484 6.84606C4.11369 7.19368 3.60495 7.68988 3.2491 8.41232L2.94334 9.03308L2.89644 12.5141L2.84954 15.9951L1.58559 17.0417C0.829991 17.6674 0.254007 18.2203 0.153273 18.4165C-0.00664383 18.7283 -0.0137721 19.3791 0.0103327 31.3379L0.0357507 43.9309L0.28646 44.5761C0.951453 46.2879 2.32261 47.4873 4.04935 47.8676C4.65712 48.0016 6.70528 48.014 24.3282 47.9904L43.9309 47.9642L44.5574 47.7204C46.0952 47.1217 47.1589 46.0449 47.7525 44.4862L47.964 43.9309L47.9902 31.3618C48.014 19.9653 48.0023 18.7613 47.8652 18.4553C47.7613 18.2236 47.3072 17.7826 46.4165 17.0483L45.1192 15.9788L45.0878 12.506L45.0564 9.03317L44.7507 8.41241C44.3948 7.68988 43.8862 7.19368 43.1449 6.84606L42.6178 6.5989L38.1627 6.552L33.7075 6.5051L30.3607 3.72227C28.52 2.19166 26.8283 0.83064 26.6015 0.697633C25.6371 0.132494 24.0246 -0.146464 23.0151 0.0772464ZM25.0027 3.01963C25.1628 3.10236 26.2108 3.93098 27.3316 4.86109L29.3695 6.552H24.003H18.6365L20.6383 4.89711C21.7391 3.98688 22.6922 3.20113 22.7563 3.15104C23.2188 2.78897 24.4207 2.71863 25.0027 3.01963ZM42.1422 9.51333C42.2729 9.64408 42.2896 10.2913 42.2896 15.2214V20.782L33.8553 27.7826C29.2165 31.6331 25.2596 34.8788 25.0622 34.9955C24.6021 35.2674 23.4633 35.2942 23.0007 35.0439C22.8381 34.9559 19.3347 32.0864 15.2156 28.6674C11.0964 25.2484 7.27255 22.0755 6.71823 21.6169L5.71023 20.7827V15.2217C5.71023 10.2914 5.72693 9.64408 5.85758 9.51333C5.99058 9.38042 7.76599 9.36597 23.9999 9.36597C40.2338 9.36597 42.0092 9.38042 42.1422 9.51333ZM13.1218 14.2203C12.1177 14.7247 12.1177 16.2011 13.1218 16.7056C13.4237 16.8573 13.968 16.8696 20.3889 16.8696C28.1279 16.8696 27.7419 16.9016 28.1953 16.2229C28.6414 15.5549 28.38 14.584 27.6559 14.2203C27.354 14.0685 26.8097 14.0562 20.3889 14.0562C13.968 14.0562 13.4237 14.0685 13.1218 14.2203ZM13.1218 19.8482C12.1177 20.3526 12.1177 21.829 13.1218 22.3335C13.4267 22.4868 14.1412 22.4975 23.9999 22.4975C35.7737 22.4975 34.9544 22.544 35.4173 21.8508C35.8635 21.1829 35.6021 20.2119 34.878 19.8482C34.5731 19.6949 33.8586 19.6841 23.9999 19.6841C14.1412 19.6841 13.4267 19.6949 13.1218 19.8482ZM10.2405 28.1957C13.9961 31.3142 17.0561 33.9013 17.0405 33.945C17.0117 34.0257 3.23241 43.4938 3.03132 43.5709C2.97072 43.5942 2.89503 43.5158 2.86314 43.3969C2.83125 43.2779 2.80462 38.4176 2.80396 32.5963L2.80265 22.0121L3.10748 22.2691C3.27518 22.4103 6.48497 25.0773 10.2405 28.1957ZM45.1477 43.3056C45.1136 43.497 45.0477 43.6014 44.9781 43.5746C44.8833 43.5382 41.0114 40.8951 32.3246 34.9368C31.5639 34.4151 30.9547 33.9484 30.9706 33.8998C30.9864 33.8513 34.1834 31.1693 38.0749 27.94L45.1502 22.0685L45.1769 32.5308C45.1915 38.2849 45.1784 43.1336 45.1477 43.3056ZM20.1406 36.4148C21.6637 37.6836 22.4703 38.0189 23.9999 38.0189C25.5335 38.0189 26.335 37.6845 27.8729 36.4033L28.6038 35.7943L29.5143 36.4197C30.015 36.7635 33.086 38.8687 36.3387 41.0976L42.2525 45.1503L33.1805 45.1742C28.191 45.1873 19.9795 45.1873 14.9329 45.1742L5.75713 45.1503L12.3226 40.6557C15.9337 38.1837 18.9937 36.0852 19.1227 35.9922C19.2516 35.8993 19.372 35.8219 19.3902 35.8203C19.4085 35.8186 19.7462 36.0861 20.1406 36.4148Z" fill="#003399"/>
</svg>
