<svg width="50" height="47" viewBox="0 0 50 47" fill="none" xmlns="http://www.w3.org/2000/svg">
<path fill-rule="evenodd" clip-rule="evenodd" d="M26.8424 0.837792C26.5883 1.07524 26.3805 1.45876 26.3805 1.68974C26.3805 1.92107 25.6591 2.20062 24.7781 2.31107C21.795 2.68523 19.452 5.13278 19.452 7.87534C19.452 9.66342 23.2426 22.2879 24.4359 24.4746C24.8554 25.2435 26.0679 26.5829 27.1299 27.451C28.8231 28.8358 29.3231 29.6046 31.1919 33.696C33.4279 38.5915 33.5218 39.2578 32.2939 41.5042C31.1688 43.5617 27.0925 44.3094 25.0775 42.8278C23.1514 41.4117 22.9162 40.4914 22.9162 34.3745C22.9162 27.7385 22.5663 26.3278 20.422 24.3239C17.1317 21.2485 12.1494 21.2485 8.8591 24.3239C7.05539 26.0098 6.36485 27.841 6.36485 30.9387C6.36485 32.9138 6.28325 33.1455 5.58655 33.1455C4.38793 33.1455 1.55418 35.8007 1.03993 37.4053C0.415601 39.3531 0.490274 40.6382 1.32747 42.3615C2.40908 44.5875 4.41025 45.8434 7.17318 46.0305C9.96227 46.219 11.3241 45.7297 13.087 43.9057C14.6802 42.2576 14.9831 41.3171 14.7537 38.7314C14.5435 36.3644 13.0886 34.3922 10.9265 33.5442L9.45187 32.9657L9.44803 30.3148C9.44418 27.7137 9.47189 27.6381 10.9384 26.2674C12.3272 24.9697 12.5893 24.8707 14.6405 24.8707C16.6917 24.8707 16.9539 24.9697 18.3427 26.2674L19.8369 27.6644L19.86 33.0131C19.8885 39.6442 20.1906 41.4229 21.6075 43.2973C23.519 45.8262 27.3477 47.0458 30.4094 46.1014C33.4082 45.176 35.9768 42.0309 35.9945 39.2617C35.9991 38.549 36.931 35.9727 38.1427 33.324C39.9029 29.4766 40.5126 28.5048 41.5781 27.8522C44.0504 26.3375 45.097 24.3271 47.5558 16.3707C48.8233 12.2689 49.8603 8.43983 49.8603 7.86167C49.8603 5.299 47.326 2.66113 44.5273 2.31035C43.4191 2.17112 42.9026 1.89121 42.5966 1.26341C42.147 0.341303 41.0623 0.13875 40.3144 0.837792C39.8371 1.28391 39.6735 4.94786 40.0861 5.95307C40.4187 6.76328 42.0542 6.66326 42.5469 5.80268C43.565 4.02432 46.781 5.62423 46.781 7.9088C46.781 9.65874 42.7155 22.5595 41.7748 23.7943C38.5915 27.9731 32.3397 28.544 28.5498 25.0017C27.9525 24.443 27.1999 23.5093 26.8778 22.9269C25.8212 21.0172 22.0856 8.2362 22.3242 7.34755C22.8673 5.3249 26.0213 4.17794 26.5729 5.80268C26.8924 6.74349 28.5271 6.75896 29.0614 5.82643C29.2804 5.44363 29.4598 4.38049 29.4598 3.46415C29.4598 2.5478 29.2804 1.48467 29.0614 1.10187C28.6122 0.317558 27.536 0.189478 26.8424 0.837792ZM36.3883 30.1108C36.3883 30.7743 34.6869 33.8536 34.4525 33.6147C34.2966 33.4557 33.812 32.5562 33.3755 31.6165L32.5822 29.9076L34.4852 29.9076C35.5318 29.9076 36.3883 29.999 36.3883 30.1108ZM10.5562 36.585C12.8711 38.4058 12.4057 41.8776 9.68359 43.0908C6.74823 44.3993 3.67045 42.5033 3.67045 39.3862C3.67045 38.0766 3.88523 37.5665 4.79555 36.7156C6.32059 35.2902 8.83717 35.2333 10.5562 36.585ZM6.78056 38.6875C5.96339 39.6075 6.43029 40.5209 7.71745 40.5209C8.73786 40.5209 8.8668 40.4 8.8668 39.4416C8.8668 38.6213 8.67396 38.3364 8.0631 38.2551C7.62122 38.1961 7.04423 38.3907 6.78056 38.6875Z" fill="#FAFCFF"/>
</svg>
