<svg width="50" height="47" viewBox="0 0 50 47" fill="none" xmlns="http://www.w3.org/2000/svg">
<path fill-rule="evenodd" clip-rule="evenodd" d="M19.3872 0.896848C10.8053 2.44883 3.40496 7.87446 1.18128 14.2446C-1.13447 20.8784 1.50232 27.1859 9.87499 35.0397C13.3814 38.3289 24.1546 46.42 25.0276 46.42C25.9006 46.42 36.6739 38.3289 40.1803 35.0397C46.8373 28.7951 49.612 24.0485 49.612 18.9052C49.612 13.8885 47.1299 9.43544 42.3423 5.86319C36.321 1.37053 27.4181 -0.555863 19.3872 0.896848ZM29.6664 4.50902C33.3323 5.15391 35.6924 6.13797 38.6676 8.26255C42.7453 11.1741 44.7915 14.756 44.7915 18.9818C44.7915 24.5078 39.3979 31.325 28.9235 39.0385L25.0276 41.9073L21.1317 39.0385C10.6573 31.325 5.26373 24.5078 5.26373 18.9818C5.26373 14.7561 7.31002 11.1741 11.3876 8.26255C14.2973 6.18509 16.7316 5.14852 20.1623 4.52737C23.7165 3.88356 26.0857 3.87888 29.6664 4.50902ZM19.8355 11.3784C11.2252 14.5798 11.7299 23.5831 20.6892 26.609C27.1891 28.8044 34.9771 25.5692 36.2998 20.1241C36.4733 19.4098 36.3818 18.0129 36.0964 17.0198C34.5538 11.6532 26.5577 8.87903 19.8355 11.3784ZM28.4584 14.6712C30.3851 15.5204 31.9686 18.0265 31.5733 19.5997C30.9949 21.9002 28.0679 23.7608 25.0276 23.7608C21.9874 23.7608 19.0604 21.9002 18.4819 19.5997C18.0944 18.0578 19.6403 15.5567 21.5179 14.6888C23.2494 13.8878 26.6618 13.8795 28.4584 14.6712Z" fill="#FAFCFF"/>
</svg>
