<svg width="44" height="54" viewBox="0 0 44 54" fill="none" xmlns="http://www.w3.org/2000/svg">
<path d="M12 12C7.9325 12.075 5.595 12.42 4.0125 14.03C2 16.08 2 19.3825 2 25.9875V37.9925C2 44.595 2 47.8975 4.0125 49.95C6.0275 52 9.2675 52 15.75 52C22.2325 52 25.475 52 27.4875 49.95C29.5 47.8975 29.5 44.595 29.5 37.9925V30.74" stroke="#003399" stroke-width="3.75" stroke-linecap="round"/>
<path d="M15.75 44.5H15.7725" stroke="#003399" stroke-width="5" stroke-linecap="round" stroke-linejoin="round"/>
<path d="M17 6.6175C20.59 3.7 24.8775 2 29.4825 2C34.1025 2 38.4025 3.7075 42 6.645M36.295 14.5C34.2593 13.2018 31.8969 12.5082 29.4825 12.5C27.0475 12.5 24.745 13.215 22.7025 14.48" stroke="#003399" stroke-width="3.75" stroke-linecap="round"/>
<path d="M29.5 22H29.515" stroke="#003399" stroke-width="5" stroke-linecap="round" stroke-linejoin="round"/>
</svg>
